<svg id="CREA_Button_Base" data-name="CREA Button Base" xmlns="http://www.w3.org/2000/svg" width="268" height="78" viewBox="0 0 268 78">
  <g id="Path_173" data-name="Path 173" fill="none">
    <path d="M39,0H229a39,39,0,0,1,0,78H39A39,39,0,0,1,39,0Z" stroke="none"/>
    <path d="M 39 3 C 34.13871765136719 3 29.42442321777344 3.951431274414063 24.98811340332031 5.82781982421875 C 20.70161437988281 7.640853881835938 16.85128784179688 10.23699951171875 13.54414367675781 13.54414367675781 C 10.23699951171875 16.85128402709961 7.640869140625 20.70160675048828 5.82781982421875 24.98810577392578 C 3.951416015625 29.4244270324707 3 34.13871383666992 3 39 C 3 43.86128616333008 3.951416015625 48.57556915283203 5.82781982421875 53.01189422607422 C 7.640869140625 57.29839324951172 10.23699951171875 61.14871215820313 13.54414367675781 64.45585632324219 C 16.85128784179688 67.76300048828125 20.70161437988281 70.35914611816406 24.98811340332031 72.17218017578125 C 29.42442321777344 74.04856872558594 34.13871765136719 75 39 75 L 229 75 C 233.8612823486328 75 238.5755767822266 74.04856872558594 243.0118865966797 72.17218017578125 C 247.2984008789063 70.35914611816406 251.1487121582031 67.76300048828125 254.4558563232422 64.45585632324219 C 257.7630004882813 61.14871215820313 260.359130859375 57.29839324951172 262.1721801757813 53.01189422607422 C 264.048583984375 48.57556915283203 265 43.86128616333008 265 39 C 265 34.13871383666992 264.048583984375 29.4244270324707 262.1721801757813 24.98810577392578 C 260.359130859375 20.70160675048828 257.7630004882813 16.85128402709961 254.4558563232422 13.54414367675781 C 251.1487121582031 10.23699951171875 247.2984008789063 7.640853881835938 243.0118865966797 5.82781982421875 C 238.5755767822266 3.951431274414063 233.8612823486328 3 229 3 L 39 3 M 39 0 L 229 0 C 250.5391082763672 0 268 17.46089172363281 268 39 C 268 60.53910827636719 250.5391082763672 78 229 78 L 39 78 C 17.46089172363281 78 0 60.53910827636719 0 39 C 0 17.46089172363281 17.46089172363281 0 39 0 Z" stroke="none" fill="#d9dee5"/>
  </g>
  <text id="BUTTON" transform="translate(73 51)" fill="rgba(0,0,0,0.87)" font-size="28" font-family="Adelle-Bold, Adelle" font-weight="700"><tspan x="0" y="0">BUTTON</tspan></text>
</svg>
